<svg id="Group_4334" data-name="Group 4334" xmlns="http://www.w3.org/2000/svg" width="30" height="30" viewBox="0 0 30 30">
  <path id="Path_447" data-name="Path 447" d="M0,0H30V30H0Z" fill="none"/>
  <path id="Path_448" data-name="Path 448" d="M16.112,17.638v2.624a7.053,7.053,0,0,0-6.619.952,7.62,7.62,0,0,0-3.071,6.152H4a10.18,10.18,0,0,1,3.755-7.943,9.422,9.422,0,0,1,8.357-1.785Zm-2.422-1.572A7.4,7.4,0,0,1,6.422,8.533,7.4,7.4,0,0,1,13.689,1a7.4,7.4,0,0,1,7.267,7.533A7.4,7.4,0,0,1,13.689,16.067Zm0-2.511a4.934,4.934,0,0,0,4.845-5.022,4.934,4.934,0,0,0-4.845-5.022A4.934,4.934,0,0,0,8.845,8.533,4.934,4.934,0,0,0,13.689,13.555Zm7.267,7.533V17.322h2.422v3.767h3.634V23.6H23.379v3.767H20.957V23.6H17.323V21.089Z" transform="translate(1.776 0.211)" fill="#925fdf"/>
</svg>
